<!-- static/img/not-found.svg -->
<svg xmlns="http://www.w3.org/2000/svg" viewBox="0 0 500 500">
  <style>
    .st0{fill:#f8f9fa;}
    .st1{fill:#0d6efd;}
    .st2{fill:#0a58ca;}
    .st3{fill:#e9ecef;}
    .st4{fill:#dee2e6;}
    .st5{fill:#adb5bd;}
  </style>
  <circle class="st0" cx="250" cy="250" r="250"/>
  <path class="st1" d="M166.7,132.2c-5.5,0-10-4.5-10-10v-12.5c0-5.5,4.5-10,10-10h166.7c5.5,0,10,4.5,10,10v12.5c0,5.5-4.5,10-10,10H166.7z"/>
  <rect x="166.7" y="132.2" class="st2" width="166.7" height="20"/>
  <rect x="156.7" y="152.2" class="st3" width="186.7" height="197.5"/>
  <path class="st4" d="M343.3,349.7H156.7c0,5.5,4.5,10,10,10h166.7c5.5,0,10-4.5,10-10V152.2C343.3,152.2,343.3,349.7,343.3,349.7z"/>
  <path class="st5" d="M270.8,250c-2.6,0-5.2-1-7.1-2.9l-36.7-36.7c-3.9-3.9-3.9-10.2,0-14.1s10.2-3.9,14.1,0l36.7,36.7c3.9,3.9,3.9,10.2,0,14.1C276,249,273.4,250,270.8,250z"/>
  <path class="st5" d="M234.2,250c-2.6,0-5.2-1-7.1-2.9c-3.9-3.9-3.9-10.2,0-14.1l36.7-36.7c3.9-3.9,10.2-3.9,14.1,0s3.9,10.2,0,14.1l-36.7,36.7C239.4,249,236.8,250,234.2,250z"/>
  <rect x="166.7" y="270" class="st1" width="166.7" height="12.5"/>
  <rect x="166.7" y="295" class="st1" width="166.7" height="5"/>
  <rect x="166.7" y="310" class="st1" width="166.7" height="5"/>
  <rect x="166.7" y="325" class="st1" width="83.3" height="5"/>
</svg>