<!-- static/img/server-error.svg -->
<svg xmlns="http://www.w3.org/2000/svg" viewBox="0 0 500 500">
  <style>
    .st0{fill:#f8f9fa;}
    .st1{fill:#dc3545;}
    .st2{fill:#b02a37;}
    .st3{fill:#e9ecef;}
    .st4{fill:#dee2e6;}
    .st5{fill:#adb5bd;}
  </style>
  <circle class="st0" cx="250" cy="250" r="250"/>
  <path class="st1" d="M333.3,309.2H166.7c-5.5,0-10-4.5-10-10V112.5c0-5.5,4.5-10,10-10h166.7c5.5,0,10,4.5,10,10v186.7C343.3,304.7,338.9,309.2,333.3,309.2z"/>
  <path class="st2" d="M333.3,309.2H166.7c-5.5,0-10-4.5-10-10v-20h186.7v20C343.3,304.7,338.9,309.2,333.3,309.2z"/>
  <rect x="176.7" y="122.5" class="st3" width="146.7" height="146.7"/>
  <path class="st4" d="M323.3,269.2H176.7V122.5h146.7V269.2z M186.7,259.2h126.7V132.5H186.7V259.2z"/>
  <circle class="st5" cx="250" cy="289.2" r="10"/>
  <rect x="166.7" y="329.2" class="st1" width="166.7" height="20"/>
  <rect x="156.7" y="349.2" class="st3" width="186.7" height="30"/>
  <path class="st5" d="M270.8,379.2h-41.7c-5.5,0-10-4.5-10-10l0,0c0-5.5,4.5-10,10-10h41.7c5.5,0,10,4.5,10,10l0,0C280.8,374.7,276.3,379.2,270.8,379.2z"/>
  <path class="st5" d="M260.8,237.5l-15-15l-15,15l-10-10l15-15l-15-15l10-10l15,15l15-15l10,10l-15,15l15,15L260.8,237.5z"/>
</svg>